<?xml version="1.0"?>
<svg version="1.1" xmlns="http://www.w3.org/2000/svg" width="240px" height="64px" style=""><path fill="#" d="M22.68798828125,32.06591796875q-3.84521484375,0-5.95458984375,2.889404296875t-2.109375,8.052978515625q0,10.74462890625,8.06396484375,10.74462890625q3.3837890625,0,8.19580078125-1.69189453125l0,5.712890625q-3.955078125,1.64794921875-8.8330078125,1.64794921875q-7.00927734375,0-10.72265625-4.251708984375t-3.71337890625-12.205810546875q0-5.009765625,1.82373046875-8.778076171875t5.240478515625-5.77880859375t8.009033203125-2.010498046875q4.68017578125,0,9.404296875,2.26318359375l-2.197265625,5.537109375q-1.8017578125-0.85693359375-3.62548828125-1.494140625t-3.58154296875-0.63720703125z M69.968090820312,42.87646484375q0,7.97607421875-3.955078125,12.2607421875t-11.337890625,4.28466796875t-11.337890625-4.28466796875t-3.955078125-12.3046875t3.966064453125-12.249755859375t11.370849609375-4.229736328125t11.326904296875,4.2626953125t3.922119140625,12.2607421875z M46.523266601562,42.87646484375q0,5.38330078125,2.04345703125,8.10791015625t6.1083984375,2.724609375q8.15185546875,0,8.15185546875-10.83251953125q0-10.8544921875-8.10791015625-10.8544921875q-4.06494140625,0-6.13037109375,2.735595703125t-2.0654296875,8.118896484375z M92.111474609375,58.982421875l-6.8115234375,0l0-26.455078125l-8.72314453125,0l0-5.6689453125l24.2578125,0l0,5.6689453125l-8.72314453125,0l0,26.455078125z M127.83395996094,50.0615234375q0,4.3505859375-3.131103515625,6.85546875t-8.712158203125,2.5048828125q-5.1416015625,0-9.0966796875-1.93359375l0-6.328125q3.251953125,1.4501953125,5.504150390625,2.04345703125t4.119873046875,0.59326171875q2.2412109375,0,3.438720703125-0.85693359375t1.197509765625-2.548828125q0-0.94482421875-0.52734375-1.680908203125t-1.549072265625-1.417236328125t-4.163818359375-2.17529296875q-2.9443359375-1.38427734375-4.41650390625-2.65869140625t-2.35107421875-2.96630859375t-0.87890625-3.955078125q0-4.2626953125,2.889404296875-6.70166015625t7.987060546875-2.43896484375q2.5048828125,0,4.779052734375,0.59326171875t4.757080078125,1.669921875l-2.197265625,5.29541015625q-2.57080078125-1.0546875-4.251708984375-1.47216796875t-3.306884765625-0.41748046875q-1.93359375,0-2.96630859375,0.90087890625t-1.03271484375,2.35107421875q0,0.90087890625,0.41748046875,1.571044921875t1.329345703125,1.29638671875t4.317626953125,2.252197265625q4.50439453125,2.1533203125,6.17431640625,4.317626953125t1.669921875,5.306396484375z"/><path fill="#ff0000" d="M143.04296875,58.982421875l0-32.1240234375l6.8115234375,0l0,26.4990234375l13.02978515625,0l0,5.625l-19.84130859375,0z M191.22395019531,58.982421875l-2.3291015625-7.646484375l-11.71142578125,0l-2.3291015625,7.646484375l-7.3388671875,0l11.337890625-32.255859375l8.32763671875,0l11.3818359375,32.255859375l-7.3388671875,0z M187.26887207031,45.623046875q-3.22998046875-10.39306640625-3.636474609375-11.75537109375t-0.582275390625-2.1533203125q-0.72509765625,2.8125-4.15283203125,13.90869140625l8.37158203125,0z M205.69887695312,26.8583984375l9.99755859375,0q6.83349609375,0,9.920654296875,1.944580078125t3.087158203125,6.185302734375q0,2.87841796875-1.351318359375,4.72412109375t-3.592529296875,2.21923828125l0,0.2197265625q3.05419921875,0.68115234375,4.405517578125,2.548828125t1.351318359375,4.9658203125q0,4.39453125-3.175048828125,6.85546875t-8.624267578125,2.4609375l-12.01904296875,0l0-32.1240234375z M212.51040039062,39.58056640625l3.955078125,0q2.7685546875,0,4.010009765625-0.85693359375t1.241455078125-2.83447265625q0-1.845703125-1.351318359375-2.647705078125t-4.273681640625-0.802001953125l-3.58154296875,0l0,7.14111328125z M212.51040039062,44.98583984375l0,8.37158203125l4.4384765625,0q2.8125,0,4.15283203125-1.07666015625t1.34033203125-3.2958984375q0-3.9990234375-5.712890625-3.9990234375l-4.21875,0z"/></svg>
